<?xml version="1.0" encoding="UTF-8" standalone="no"?>
<svg
   fill="none"
   viewBox="0 0 162.65067 226.08142"
   version="1.1"
   id="svg11"
   width="162.65067"
   height="226.08142"
   xmlns="http://www.w3.org/2000/svg"
   xmlns:svg="http://www.w3.org/2000/svg">
  <defs
     id="defs15" />
  <path
     fill="#1161fe"
     stroke="#0f62ff"
     stroke-width="4"
     d="m 160.6,165.96101 c -2.3,-40.7 -53.5,-59.2 -58.4,-61.1 -0.2,-0.1 -0.2,-0.3 -0.1,-0.5 l 52.8,-53.000004 v -5.7 c 0,-0.9 -0.8,-1.7 -1.7,-1.7 H 55.9 V 2.4610061 l -35.9,7.5 v 5.3999999 h 2 c 0,0 8.8,0 8.8,8.8 v 19.7 H 3 c -0.5,0 -1,0.5 -1,1 v 12.5 h 28.9 v 67.900004 c 0,21.3 13.7,36.1 37.7,34.1 5.1,-0.4 9.8,-2.4 13.8,-5 1.8,-1.2 2.9,-3.1 2.9,-5.3 v -6.7 c -7.8,5.2 -14.4,4.9 -14.4,4.9 -15.2,0 -14.9,-19.3 -14.9,-19.3 V 57.361006 h 70 L 75.6,108.16101 c -0.1,6.7 -0.2,11.9 -0.2,12 0,0.2 0.1,0.3 0.3,0.3 46.2,7.8 58.7,37.7 58.7,46.4 0,0 5,42.3 -37.3,45.2 0,0 -27.7,1.2 -32.6,-9.9 -0.2,-0.4 0,-0.8 0.4,-1 4.6,-2.1 7.7,-6.2 7.7,-11.7 0,-8.2 -5,-14.9 -15.5,-14.9 -8.5,0 -15.5,6.7 -15.5,14.9 0,0 -4,35.6 55.4,34.6 67.8,-1.2 63.6,-58.1 63.6,-58.1 z"
     id="path9" />
</svg>
